<mxfile host="app.diagrams.net" modified="2024-01-05T14:39:13.220Z" agent="Mozilla/5.0 (X11; Ubuntu; Linux x86_64; rv:121.0) Gecko/20100101 Firefox/121.0" etag="dH9BL1VOWw0G-_z1VSUy" version="22.1.16" type="device">
  <diagram name="Seite-1" id="Gpju141NbVFvurF1SpKT">
    <mxGraphModel dx="1434" dy="788" grid="1" gridSize="10" guides="1" tooltips="1" connect="1" arrows="1" fold="1" page="1" pageScale="1" pageWidth="1169" pageHeight="827" math="0" shadow="0">
      <root>
        <mxCell id="0" />
        <mxCell id="1" parent="0" />
        <mxCell id="ZwQCv5d4x1TeM5Ecgkvp-28" value="FFVideoStamp container" style="swimlane;whiteSpace=wrap;html=1;fillColor=default;swimlaneFillColor=default;rounded=1;strokeColor=#8dbcde;strokeWidth=3;" vertex="1" parent="1">
          <mxGeometry x="60" y="10" width="970" height="390" as="geometry">
            <mxRectangle x="70" y="20" width="140" height="30" as="alternateBounds" />
          </mxGeometry>
        </mxCell>
        <mxCell id="ZwQCv5d4x1TeM5Ecgkvp-4" value="record.sh" style="shape=process;whiteSpace=wrap;html=1;backgroundOutline=1;rounded=1;arcSize=13;strokeWidth=2;strokeColor=#878AFF;shadow=1;" vertex="1" parent="ZwQCv5d4x1TeM5Ecgkvp-28">
          <mxGeometry x="20" y="65" width="120" height="60" as="geometry" />
        </mxCell>
        <mxCell id="ZwQCv5d4x1TeM5Ecgkvp-34" style="edgeStyle=orthogonalEdgeStyle;rounded=0;orthogonalLoop=1;jettySize=auto;html=1;entryX=0;entryY=0.5;entryDx=0;entryDy=0;shadow=1;" edge="1" parent="ZwQCv5d4x1TeM5Ecgkvp-28" source="ZwQCv5d4x1TeM5Ecgkvp-6" target="ZwQCv5d4x1TeM5Ecgkvp-8">
          <mxGeometry relative="1" as="geometry" />
        </mxCell>
        <mxCell id="ZwQCv5d4x1TeM5Ecgkvp-6" value="disk" style="shape=cylinder3;whiteSpace=wrap;html=1;boundedLbl=1;backgroundOutline=1;size=15;strokeWidth=1;shadow=1;" vertex="1" parent="ZwQCv5d4x1TeM5Ecgkvp-28">
          <mxGeometry x="270" y="55" width="80" height="80" as="geometry" />
        </mxCell>
        <mxCell id="ZwQCv5d4x1TeM5Ecgkvp-7" style="edgeStyle=orthogonalEdgeStyle;rounded=0;orthogonalLoop=1;jettySize=auto;html=1;shadow=1;" edge="1" parent="ZwQCv5d4x1TeM5Ecgkvp-28" source="ZwQCv5d4x1TeM5Ecgkvp-4" target="ZwQCv5d4x1TeM5Ecgkvp-6">
          <mxGeometry relative="1" as="geometry" />
        </mxCell>
        <mxCell id="ZwQCv5d4x1TeM5Ecgkvp-8" value="video_processing.py" style="shape=process;whiteSpace=wrap;html=1;backgroundOutline=1;rounded=1;arcSize=13;strokeWidth=2;strokeColor=#86c1a1;shadow=1;" vertex="1" parent="ZwQCv5d4x1TeM5Ecgkvp-28">
          <mxGeometry x="510" y="65" width="160" height="60" as="geometry" />
        </mxCell>
        <mxCell id="ZwQCv5d4x1TeM5Ecgkvp-11" value="$epoch_stamp.mp4" style="text;html=1;strokeColor=none;fillColor=none;align=center;verticalAlign=middle;whiteSpace=wrap;rounded=0;shadow=1;" vertex="1" parent="ZwQCv5d4x1TeM5Ecgkvp-28">
          <mxGeometry x="150" y="65" width="110" height="30" as="geometry" />
        </mxCell>
        <mxCell id="ZwQCv5d4x1TeM5Ecgkvp-16" value="timestamps.csv" style="shape=note;whiteSpace=wrap;html=1;backgroundOutline=1;darkOpacity=0.05;size=17;shadow=1;" vertex="1" parent="ZwQCv5d4x1TeM5Ecgkvp-28">
          <mxGeometry x="790" y="50" width="95" height="90" as="geometry" />
        </mxCell>
        <mxCell id="ZwQCv5d4x1TeM5Ecgkvp-25" style="edgeStyle=orthogonalEdgeStyle;rounded=0;orthogonalLoop=1;jettySize=auto;html=1;shadow=1;" edge="1" parent="ZwQCv5d4x1TeM5Ecgkvp-28" source="ZwQCv5d4x1TeM5Ecgkvp-8" target="ZwQCv5d4x1TeM5Ecgkvp-16">
          <mxGeometry relative="1" as="geometry" />
        </mxCell>
        <mxCell id="ZwQCv5d4x1TeM5Ecgkvp-32" style="edgeStyle=orthogonalEdgeStyle;rounded=1;orthogonalLoop=1;jettySize=auto;html=1;entryX=0.5;entryY=0;entryDx=0;entryDy=0;curved=0;shadow=1;" edge="1" parent="ZwQCv5d4x1TeM5Ecgkvp-28" source="ZwQCv5d4x1TeM5Ecgkvp-17" target="ZwQCv5d4x1TeM5Ecgkvp-8">
          <mxGeometry relative="1" as="geometry">
            <Array as="points">
              <mxPoint x="930" y="210" />
              <mxPoint x="930" y="30" />
              <mxPoint x="590" y="30" />
            </Array>
          </mxGeometry>
        </mxCell>
        <mxCell id="ZwQCv5d4x1TeM5Ecgkvp-17" value="meta.json" style="shape=note;whiteSpace=wrap;html=1;backgroundOutline=1;darkOpacity=0.05;size=14;shadow=1;" vertex="1" parent="ZwQCv5d4x1TeM5Ecgkvp-28">
          <mxGeometry x="805" y="170" width="80" height="90" as="geometry" />
        </mxCell>
        <mxCell id="ZwQCv5d4x1TeM5Ecgkvp-20" value="Reads from /dev/videoX" style="text;html=1;strokeColor=none;fillColor=none;align=center;verticalAlign=middle;whiteSpace=wrap;rounded=0;shadow=1;" vertex="1" parent="ZwQCv5d4x1TeM5Ecgkvp-28">
          <mxGeometry x="80" y="130" width="100" height="30" as="geometry" />
        </mxCell>
        <mxCell id="ZwQCv5d4x1TeM5Ecgkvp-21" value="Calls several shell scripts" style="text;html=1;strokeColor=none;fillColor=none;align=center;verticalAlign=middle;whiteSpace=wrap;rounded=0;shadow=1;glass=0;" vertex="1" parent="ZwQCv5d4x1TeM5Ecgkvp-28">
          <mxGeometry x="540" y="125" width="100" height="30" as="geometry" />
        </mxCell>
        <mxCell id="ZwQCv5d4x1TeM5Ecgkvp-24" style="edgeStyle=orthogonalEdgeStyle;rounded=1;orthogonalLoop=1;jettySize=auto;html=1;exitX=0;exitY=0;exitDx=32.5;exitDy=0;exitPerimeter=0;entryX=0;entryY=0.5;entryDx=0;entryDy=0;curved=0;shadow=1;" edge="1" parent="ZwQCv5d4x1TeM5Ecgkvp-28" source="ZwQCv5d4x1TeM5Ecgkvp-23" target="ZwQCv5d4x1TeM5Ecgkvp-8">
          <mxGeometry relative="1" as="geometry" />
        </mxCell>
        <mxCell id="ZwQCv5d4x1TeM5Ecgkvp-23" value="settings.toml" style="shape=note;whiteSpace=wrap;html=1;backgroundOutline=1;darkOpacity=0.05;size=20;shadow=1;" vertex="1" parent="ZwQCv5d4x1TeM5Ecgkvp-28">
          <mxGeometry x="430" y="160" width="70" height="80" as="geometry" />
        </mxCell>
        <mxCell id="ZwQCv5d4x1TeM5Ecgkvp-26" style="edgeStyle=orthogonalEdgeStyle;rounded=1;orthogonalLoop=1;jettySize=auto;html=1;entryX=0;entryY=0.5;entryDx=0;entryDy=0;entryPerimeter=0;curved=0;shadow=1;" edge="1" parent="ZwQCv5d4x1TeM5Ecgkvp-28" source="ZwQCv5d4x1TeM5Ecgkvp-8" target="ZwQCv5d4x1TeM5Ecgkvp-17">
          <mxGeometry relative="1" as="geometry">
            <Array as="points">
              <mxPoint x="730" y="95" />
              <mxPoint x="730" y="215" />
            </Array>
          </mxGeometry>
        </mxCell>
        <mxCell id="ZwQCv5d4x1TeM5Ecgkvp-29" value="*.png" style="shape=cube;whiteSpace=wrap;html=1;boundedLbl=1;backgroundOutline=1;darkOpacity=0.05;darkOpacity2=0.1;shadow=1;" vertex="1" parent="ZwQCv5d4x1TeM5Ecgkvp-28">
          <mxGeometry x="777.5" y="280" width="120" height="80" as="geometry" />
        </mxCell>
        <mxCell id="ZwQCv5d4x1TeM5Ecgkvp-30" style="edgeStyle=orthogonalEdgeStyle;rounded=1;orthogonalLoop=1;jettySize=auto;html=1;entryX=-0.012;entryY=0.488;entryDx=0;entryDy=0;entryPerimeter=0;curved=0;shadow=1;" edge="1" parent="ZwQCv5d4x1TeM5Ecgkvp-28" source="ZwQCv5d4x1TeM5Ecgkvp-8" target="ZwQCv5d4x1TeM5Ecgkvp-29">
          <mxGeometry relative="1" as="geometry">
            <Array as="points">
              <mxPoint x="730" y="95" />
              <mxPoint x="730" y="319" />
            </Array>
          </mxGeometry>
        </mxCell>
        <mxCell id="ZwQCv5d4x1TeM5Ecgkvp-33" value="$epoch_stamp.mp4" style="text;html=1;strokeColor=none;fillColor=none;align=center;verticalAlign=middle;whiteSpace=wrap;rounded=0;shadow=1;" vertex="1" parent="ZwQCv5d4x1TeM5Ecgkvp-28">
          <mxGeometry x="380" y="65" width="110" height="30" as="geometry" />
        </mxCell>
        <mxCell id="ZwQCv5d4x1TeM5Ecgkvp-37" value="dev/" style="text;html=1;strokeColor=none;fillColor=none;align=center;verticalAlign=middle;whiteSpace=wrap;rounded=0;shadow=1;" vertex="1" parent="ZwQCv5d4x1TeM5Ecgkvp-28">
          <mxGeometry x="50" y="290" width="60" height="30" as="geometry" />
        </mxCell>
        <mxCell id="ZwQCv5d4x1TeM5Ecgkvp-36" style="edgeStyle=orthogonalEdgeStyle;rounded=0;orthogonalLoop=1;jettySize=auto;html=1;entryX=0.5;entryY=1;entryDx=0;entryDy=0;startArrow=classic;startFill=1;shadow=1;" edge="1" parent="ZwQCv5d4x1TeM5Ecgkvp-28" source="ZwQCv5d4x1TeM5Ecgkvp-37" target="ZwQCv5d4x1TeM5Ecgkvp-4">
          <mxGeometry relative="1" as="geometry" />
        </mxCell>
        <mxCell id="ZwQCv5d4x1TeM5Ecgkvp-40" value="mnt/" style="text;html=1;strokeColor=none;fillColor=none;align=center;verticalAlign=middle;whiteSpace=wrap;rounded=0;shadow=1;" vertex="1" parent="ZwQCv5d4x1TeM5Ecgkvp-28">
          <mxGeometry x="280" y="290" width="60" height="30" as="geometry" />
        </mxCell>
        <mxCell id="ZwQCv5d4x1TeM5Ecgkvp-39" style="edgeStyle=orthogonalEdgeStyle;rounded=1;orthogonalLoop=1;jettySize=auto;html=1;entryX=0.5;entryY=1;entryDx=0;entryDy=0;entryPerimeter=0;curved=0;startArrow=classic;startFill=1;shadow=1;" edge="1" parent="ZwQCv5d4x1TeM5Ecgkvp-28" source="ZwQCv5d4x1TeM5Ecgkvp-40" target="ZwQCv5d4x1TeM5Ecgkvp-6">
          <mxGeometry relative="1" as="geometry" />
        </mxCell>
        <mxCell id="ZwQCv5d4x1TeM5Ecgkvp-35" value="Host System" style="shape=hexagon;perimeter=hexagonPerimeter2;whiteSpace=wrap;html=1;fixedSize=1;shadow=1;" vertex="1" parent="1">
          <mxGeometry x="80" y="460" width="120" height="80" as="geometry" />
        </mxCell>
        <mxCell id="ZwQCv5d4x1TeM5Ecgkvp-38" value="" style="edgeStyle=orthogonalEdgeStyle;rounded=0;orthogonalLoop=1;jettySize=auto;html=1;entryX=0.5;entryY=1;entryDx=0;entryDy=0;startArrow=classic;startFill=1;shadow=1;" edge="1" parent="1" source="ZwQCv5d4x1TeM5Ecgkvp-35" target="ZwQCv5d4x1TeM5Ecgkvp-37">
          <mxGeometry relative="1" as="geometry">
            <mxPoint x="140" y="460" as="sourcePoint" />
            <mxPoint x="140" y="135" as="targetPoint" />
          </mxGeometry>
        </mxCell>
        <mxCell id="ZwQCv5d4x1TeM5Ecgkvp-41" value="" style="edgeStyle=orthogonalEdgeStyle;rounded=1;orthogonalLoop=1;jettySize=auto;html=1;entryX=0.5;entryY=1;entryDx=0;entryDy=0;entryPerimeter=0;curved=0;startArrow=classic;startFill=1;shadow=1;" edge="1" parent="1" source="ZwQCv5d4x1TeM5Ecgkvp-35" target="ZwQCv5d4x1TeM5Ecgkvp-40">
          <mxGeometry relative="1" as="geometry">
            <mxPoint x="200" y="500" as="sourcePoint" />
            <mxPoint x="370" y="145" as="targetPoint" />
          </mxGeometry>
        </mxCell>
      </root>
    </mxGraphModel>
  </diagram>
</mxfile>
